<svg width="43" height="43" viewBox="0 0 43 43" fill="none" xmlns="http://www.w3.org/2000/svg">
<g id="Ellipse 99">
<mask id="path-1-inside-1_2_4553" fill="white">
<path d="M43 21.5C43 33.3741 33.3741 43 21.5 43C9.62588 43 0 33.3741 0 21.5C0 9.62588 9.62588 0 21.5 0C33.3741 0 43 9.62588 43 21.5ZM4.43616 21.5C4.43616 30.9241 12.0759 38.5638 21.5 38.5638C30.9241 38.5638 38.5638 30.9241 38.5638 21.5C38.5638 12.0759 30.9241 4.43616 21.5 4.43616C12.0759 4.43616 4.43616 12.0759 4.43616 21.5Z"/>
</mask>
<path d="M43 21.5C43 33.3741 33.3741 43 21.5 43C9.62588 43 0 33.3741 0 21.5C0 9.62588 9.62588 0 21.5 0C33.3741 0 43 9.62588 43 21.5ZM4.43616 21.5C4.43616 30.9241 12.0759 38.5638 21.5 38.5638C30.9241 38.5638 38.5638 30.9241 38.5638 21.5C38.5638 12.0759 30.9241 4.43616 21.5 4.43616C12.0759 4.43616 4.43616 12.0759 4.43616 21.5Z" fill="#EDD9FF" stroke="#EDD9FF" style="fill:#EDD9FF;fill:color(display-p3 0.9294 0.8510 1.0000);fill-opacity:1;stroke:#EDD9FF;stroke:color(display-p3 0.9294 0.8510 1.0000);stroke-opacity:1;" stroke-width="1.6" mask="url(#path-1-inside-1_2_4553)"/>
</g>
</svg>
