<svg width="24" height="25" viewBox="0 0 24 25" fill="none" xmlns="http://www.w3.org/2000/svg">
<g id="Ellipse 1">
<path d="M4.54586 0.949247C2.01411 3.58796 0.591797 7.16683 0.591797 10.8985C0.591798 14.6302 2.01411 18.2091 4.54585 20.8478C7.0776 23.4865 10.5114 24.969 14.0918 24.969C17.6722 24.969 21.106 23.4865 23.6377 20.8478L14.0918 10.8985L4.54586 0.949247Z" fill="#1F5095" style="fill:#1F5095;fill:color(display-p3 0.1202 0.3133 0.5841);fill-opacity:1;"/>
<path d="M4.54586 0.949247C2.01411 3.58796 0.591797 7.16683 0.591797 10.8985C0.591798 14.6302 2.01411 18.2091 4.54585 20.8478C7.0776 23.4865 10.5114 24.969 14.0918 24.969C17.6722 24.969 21.106 23.4865 23.6377 20.8478L14.0918 10.8985L4.54586 0.949247Z" fill="#1F5095" style="fill:#1F5095;fill:color(display-p3 0.1202 0.3133 0.5841);fill-opacity:1;"/>
</g>
</svg>
