<svg width="21" height="21" viewBox="0 0 21 21" fill="none" xmlns="http://www.w3.org/2000/svg">
<g id="Group 427318261" opacity="0.54">
<path id="Vector" d="M14.743 0H6.25609C4.59726 0.00126406 3.00673 0.660792 1.83376 1.83376C0.660792 3.00673 0.00126406 4.59726 0 6.25609V14.743C0.00101126 16.402 0.660427 17.9927 1.83343 19.1659C3.00642 20.3391 4.59709 20.9987 6.25609 21H14.743C16.4019 20.9985 17.9924 20.3387 19.1653 19.1656C20.3383 17.9925 20.9978 16.4019 20.999 14.743V6.25609C20.9983 4.59711 20.3389 3.00628 19.1658 1.8332C17.9928 0.660125 16.4019 0.000758856 14.743 0ZM18.8876 14.743C18.8873 15.8421 18.4506 16.8962 17.6734 17.6734C16.8962 18.4506 15.8421 18.8873 14.743 18.8876H6.25609C5.71185 18.8876 5.17295 18.7804 4.67015 18.5721C4.16735 18.3638 3.71052 18.0585 3.32573 17.6736C2.94094 17.2887 2.63574 16.8318 2.42755 16.329C2.21937 15.8261 2.11228 15.2872 2.11241 14.743V6.25609C2.11228 5.7119 2.21938 5.17302 2.42757 4.67022C2.63577 4.16743 2.94098 3.71059 3.32579 3.32579C3.71059 2.94098 4.16743 2.63577 4.67022 2.42757C5.17301 2.21938 5.7119 2.11228 6.25609 2.11241H14.743C15.8418 2.11266 16.8957 2.54931 17.6727 3.32634C18.4497 4.10338 18.8864 5.1572 18.8866 6.25609L18.8876 14.743Z" fill="black" style="fill:black;fill-opacity:1;"/>
<path id="Vector_2" d="M10.4988 5.05337C7.50342 5.05337 5.06934 7.48842 5.06934 10.4828C5.06934 13.4772 7.50438 15.9123 10.4988 15.9123C13.4932 15.9123 15.9282 13.4772 15.9282 10.4828C15.9282 7.48842 13.4941 5.05337 10.4988 5.05337ZM10.4988 13.7999C9.61905 13.8 8.7753 13.4506 8.15314 12.8287C7.53099 12.2067 7.18139 11.363 7.18127 10.4833C7.18114 9.60357 7.53049 8.75982 8.15247 8.13766C8.77444 7.5155 9.6181 7.16591 10.4978 7.16578C11.3776 7.16566 12.2213 7.51501 12.8435 8.13699C13.4656 8.75896 13.8152 9.60262 13.8154 10.4824C13.8155 11.3621 13.4661 12.2058 12.8441 12.828C12.2222 13.4502 11.3785 13.7997 10.4988 13.7999ZM15.9397 3.79242C16.1969 3.79261 16.4483 3.86905 16.6622 4.01208C16.876 4.15512 17.0426 4.35832 17.1409 4.59602C17.2393 4.83371 17.265 5.09523 17.2147 5.34752C17.1645 5.59981 17.0406 5.83155 16.8587 6.01344C16.6768 6.19534 16.4451 6.31923 16.1928 6.36946C15.9405 6.4197 15.679 6.39401 15.4413 6.29566C15.2036 6.1973 15.0004 6.03069 14.8574 5.81688C14.7143 5.60307 14.6379 5.35166 14.6377 5.09442C14.6377 4.3766 15.1245 3.79242 15.9397 3.79242Z" fill="black" style="fill:black;fill-opacity:1;"/>
</g>
</svg>
