<svg width="242" height="22" viewBox="0 0 242 22" fill="none" xmlns="http://www.w3.org/2000/svg">
<g id="Group 427318269">
<path id="facebook-[#176]" opacity="0.54" fill-rule="evenodd" clip-rule="evenodd" d="M165.336 21.5468V13.1858H167.874L168.289 9.4698H165.336V7.65988C165.336 6.70301 165.36 5.7538 166.698 5.7538H168.052V3.09698C168.052 3.05704 166.889 2.9668 165.712 2.9668C163.254 2.9668 161.715 4.50633 161.715 7.33328V9.4698H158.999V13.1858H161.715V21.5468H165.336Z" fill="white" style="fill:white;fill-opacity:1;"/>
<path id="linkedin-[#161]" opacity="0.54" fill-rule="evenodd" clip-rule="evenodd" d="M99.999 20.9668H95.999V13.9678C95.999 12.0478 95.152 10.9766 93.633 10.9766C91.98 10.9766 90.999 12.0928 90.999 13.9678V20.9668H86.999V7.9668H90.999V9.42871C90.999 9.42871 92.254 7.22656 95.082 7.22656C97.911 7.22656 99.999 8.9529 99.999 12.5249V20.9668ZM82.441 5.8877C81.092 5.8877 79.999 4.78576 79.999 3.42676C79.999 2.06876 81.092 0.966797 82.441 0.966797C83.789 0.966797 84.882 2.06876 84.882 3.42676C84.883 4.78576 83.789 5.8877 82.441 5.8877ZM79.999 20.9668H84.999V7.9668H79.999V20.9668Z" fill="white" style="fill:white;fill-opacity:1;"/>
<g id="Group 427318261" opacity="0.54">
<path id="Vector" d="M14.743 0.966797H6.25609C4.59726 0.968061 3.00673 1.62759 1.83376 2.80056C0.660792 3.97353 0.00126406 5.56406 0 7.22289V15.7098C0.00101126 17.3687 0.660427 18.9595 1.83343 20.1327C3.00642 21.3059 4.59709 21.9655 6.25609 21.9668H14.743C16.4019 21.9653 17.9924 21.3055 19.1653 20.1324C20.3383 18.9593 20.9978 17.3687 20.999 15.7098V7.22289C20.9983 5.5639 20.3389 3.97308 19.1658 2.8C17.9928 1.62692 16.4019 0.967556 14.743 0.966797ZM18.8876 15.7098C18.8873 16.8089 18.4506 17.863 17.6734 18.6402C16.8962 19.4174 15.8421 19.8541 14.743 19.8544H6.25609C5.71185 19.8544 5.17295 19.7472 4.67015 19.5389C4.16735 19.3306 3.71052 19.0253 3.32573 18.6404C2.94094 18.2555 2.63574 17.7986 2.42755 17.2958C2.21937 16.7929 2.11228 16.254 2.11241 15.7098V7.22289C2.11228 6.6787 2.21938 6.13981 2.42757 5.63702C2.63577 5.13423 2.94098 4.67738 3.32579 4.29258C3.71059 3.90778 4.16743 3.60256 4.67022 3.39437C5.17301 3.18617 5.7119 3.07908 6.25609 3.07921H14.743C15.8418 3.07946 16.8957 3.51611 17.6727 4.29314C18.4497 5.07018 18.8864 6.12399 18.8866 7.22289L18.8876 15.7098Z" fill="white" style="fill:white;fill-opacity:1;"/>
<path id="Vector_2" d="M10.4993 6.02023C7.50391 6.02023 5.06982 8.45528 5.06982 11.4497C5.06982 14.4441 7.50487 16.8791 10.4993 16.8791C13.4937 16.8791 15.9287 14.4441 15.9287 11.4497C15.9287 8.45528 13.4946 6.02023 10.4993 6.02023ZM10.4993 14.7667C9.61954 14.7669 8.77579 14.4175 8.15363 13.7955C7.53148 13.1736 7.18188 12.3299 7.18175 11.4502C7.18163 10.5704 7.53098 9.72668 8.15296 9.10452C8.77493 8.48236 9.61858 8.13277 10.4983 8.13264C11.3781 8.13251 12.2218 8.48187 12.844 9.10384C13.4661 9.72582 13.8157 10.5695 13.8158 11.4492C13.816 12.3289 13.4666 13.1727 12.8446 13.7949C12.2227 14.417 11.379 14.7666 10.4993 14.7667ZM15.9402 4.75928C16.1974 4.75947 16.4488 4.83591 16.6626 4.97894C16.8764 5.12197 17.0431 5.32518 17.1414 5.56287C17.2398 5.80057 17.2655 6.06209 17.2152 6.31438C17.165 6.56667 17.0411 6.7984 16.8592 6.9803C16.6773 7.1622 16.4456 7.28609 16.1933 7.33632C15.941 7.38655 15.6795 7.36087 15.4418 7.26251C15.2041 7.16416 15.0009 6.99755 14.8578 6.78374C14.7148 6.56993 14.6384 6.31852 14.6382 6.06128C14.6382 5.34346 15.125 4.75928 15.9402 4.75928Z" fill="white" style="fill:white;fill-opacity:1;"/>
</g>
<path id="Vector_3" opacity="0.54" d="M235.595 13.0065L240.791 6.9668H239.56L235.048 12.211L231.445 6.9668H227.289L232.738 14.8969L227.289 21.2305H228.52L233.285 15.6925L237.09 21.2305H241.246L235.595 13.0065H235.595ZM233.909 14.9668L233.357 14.1771L228.964 7.89371H230.855L234.4 12.9646L234.952 13.7543L239.561 20.3457H237.669L233.909 14.9671V14.9668Z" fill="white" style="fill:white;fill-opacity:1;"/>
</g>
</svg>
