<svg width="20" height="20" viewBox="0 0 20 20" fill="none" xmlns="http://www.w3.org/2000/svg">
<path id="linkedin-[#161]" opacity="0.54" fill-rule="evenodd" clip-rule="evenodd" d="M19.999 20H15.999V13.001C15.999 11.081 15.152 10.0098 13.633 10.0098C11.98 10.0098 10.999 11.126 10.999 13.001V20H6.99902V7H10.999V8.46191C10.999 8.46191 12.254 6.25977 15.082 6.25977C17.911 6.25977 19.999 7.98611 19.999 11.5581V20ZM2.44102 4.9209C1.09202 4.9209 -0.000976562 3.81896 -0.000976562 2.45996C-0.000976562 1.10196 1.09202 0 2.44102 0C3.78902 0 4.88202 1.10196 4.88202 2.45996C4.88302 3.81896 3.78902 4.9209 2.44102 4.9209ZM-0.000976562 20H4.99902V7H-0.000976562V20Z" fill="black" style="fill:black;fill-opacity:1;"/>
</svg>
