<svg width="21" height="21" viewBox="0 0 21 21" fill="none" xmlns="http://www.w3.org/2000/svg">
<g id="heroicons-solid/magnifying-glass">
<path id="Vector (Stroke)" fill-rule="evenodd" clip-rule="evenodd" d="M9.1875 3.28125C5.92557 3.28125 3.28125 5.92557 3.28125 9.1875C3.28125 12.4494 5.92557 15.0938 9.1875 15.0938C10.8186 15.0938 12.2943 14.4334 13.3638 13.3638C14.4334 12.2943 15.0938 10.8186 15.0938 9.1875C15.0938 5.92557 12.4494 3.28125 9.1875 3.28125ZM1.96875 9.1875C1.96875 5.20069 5.20069 1.96875 9.1875 1.96875C13.1743 1.96875 16.4062 5.20069 16.4062 9.1875C16.4062 10.9443 15.778 12.5554 14.7349 13.8069L18.839 17.911C19.0953 18.1672 19.0953 18.5828 18.839 18.839C18.5828 19.0953 18.1672 19.0953 17.911 18.839L13.8069 14.7349C12.5554 15.778 10.9443 16.4062 9.1875 16.4062C5.20069 16.4062 1.96875 13.1743 1.96875 9.1875Z" fill="white" style="fill:white;fill:white;fill-opacity:1;"/>
</g>
</svg>
